<svg width="124" height="40" viewBox="0 0 124 40" fill="none" xmlns="http://www.w3.org/2000/svg">
<rect width="40" height="40" rx="20" fill="#1C9E7D"/>
<path d="M9.59458 23.6368C9.59458 23.2956 9.50317 22.9612 9.33079 22.6718L7.87873 20.2342C7.67806 19.8973 7.90889 19.4604 8.28753 19.4604H12.1074C12.7357 19.4604 13.3012 19.8602 13.5371 20.4712L14.1407 22.0345C14.3078 22.4673 14.667 22.7887 15.1045 22.874C16.6425 23.1741 18.3792 23.343 20.2175 23.343C21.8603 23.343 23.4219 23.2081 24.8331 22.9653C25.2828 22.8879 25.6551 22.5625 25.8262 22.1193L26.4625 20.4712C26.6984 19.8602 27.2639 19.4604 27.8923 19.4604H31.7121C32.0907 19.4604 32.3216 19.8973 32.1209 20.2342L31.1031 21.9427C31.0253 22.1192 30.9219 22.2921 30.7945 22.4607L30.6688 22.6718C30.4964 22.9612 30.405 23.2956 30.405 23.6368V26.5078C30.405 26.9547 30.0597 27.317 29.6337 27.317H27.3451C26.9192 27.317 26.5738 26.9547 26.5738 26.5078V25.3431C26.5738 25.0765 26.3324 24.8827 26.0855 24.9454C24.3848 25.3773 22.3732 25.627 20.2175 25.627C17.8794 25.627 15.7108 25.3332 13.9246 24.8319C13.6749 24.7619 13.4258 24.9565 13.4258 25.2276V26.5078C13.4258 26.9547 13.0805 27.317 12.6545 27.317H10.3659C9.93991 27.317 9.59458 26.9547 9.59458 26.5078V23.6368Z" fill="white"/>
<path d="M14.2653 14.2296C14.6114 13.297 15.4676 12.6829 16.4215 12.6829H23.4817C24.4356 12.6829 25.2918 13.297 25.6379 14.2296L26.972 17.8239C27.1197 18.2218 26.84 18.6511 26.433 18.6511H13.4702C13.0632 18.6511 12.7835 18.2218 12.9312 17.8239L14.2653 14.2296Z" fill="white"/>
<path d="M60.8351 11.9187C60.8351 11.6875 61.0208 11.5 61.2499 11.5H63.4279C63.657 11.5 63.8427 11.6875 63.8427 11.9187V28.0813C63.8427 28.3125 63.657 28.5 63.4279 28.5H61.2499C61.0208 28.5 60.8351 28.3125 60.8351 28.0813V21.123C60.8351 20.8918 60.6493 20.7043 60.4202 20.7043H50.4225C50.1934 20.7043 50.0076 20.8918 50.0076 21.123V28.0813C50.0076 28.3125 49.8219 28.5 49.5928 28.5H47.4148C47.1857 28.5 47 28.3125 47 28.0813V11.9187C47 11.6875 47.1857 11.5 47.4148 11.5H49.5928C49.8219 11.5 50.0076 11.6875 50.0076 11.9187V17.2499C50.0076 17.4811 50.1934 17.6686 50.4225 17.6686H60.4202C60.6493 17.6686 60.8351 17.4811 60.8351 17.2499V11.9187Z" fill="#052E23"/>
<path d="M66.2441 11.9199C66.2441 11.6882 66.4306 11.5005 66.6601 11.5012L74.6414 11.5243C79.2852 11.5243 83.0627 15.3129 83.0627 20C83.0627 22.0886 82.3168 24.0071 81.0657 25.4886C80.9213 25.6586 80.7529 25.8286 80.5845 25.9986C79.0686 27.5529 76.9753 28.5 74.6655 28.5H66.6589C66.4298 28.5 66.2441 28.3125 66.2441 28.0813V11.9199ZM69.6425 14.56C69.4134 14.56 69.2277 14.7475 69.2277 14.9787V25.0699C69.2277 25.3011 69.4134 25.4886 69.6425 25.4886H74.6414C77.625 25.4886 80.0551 23.0357 80.0551 20.0243C80.0551 17.0129 77.625 14.56 74.6414 14.56H69.6425Z" fill="#052E23"/>
<path d="M88.4958 28.0813C88.4958 28.3125 88.3101 28.5 88.081 28.5H85.903C85.6739 28.5 85.4882 28.3125 85.4882 28.0813V11.9187C85.4882 11.6875 85.6739 11.5 85.903 11.5H88.081C88.3101 11.5 88.4958 11.6875 88.4958 11.9187V28.0813Z" fill="#052E23"/>
<path d="M90.8925 11.9199C90.8925 11.6882 91.079 11.5005 91.3086 11.5012L99.2898 11.5243C103.934 11.5243 107.711 15.3129 107.711 20C107.711 22.0886 106.965 24.0071 105.714 25.4886C105.57 25.6586 105.401 25.8286 105.233 25.9986C103.717 27.5529 101.624 28.5 99.3139 28.5H91.3074C91.0783 28.5 90.8925 28.3125 90.8925 28.0813V11.9199ZM94.2909 14.56C94.0618 14.56 93.8761 14.7475 93.8761 14.9787V25.0699C93.8761 25.3011 94.0618 25.4886 94.2909 25.4886H99.2898C102.273 25.4886 104.704 23.0357 104.704 20.0243C104.704 17.0129 102.273 14.56 99.2898 14.56H94.2909Z" fill="#052E23"/>
<path d="M122.723 25.4643L123.954 27.8905C124.095 28.1691 123.895 28.5 123.585 28.5H121.148C120.992 28.5 120.85 28.412 120.779 28.2721L119.355 25.4643L116.043 18.91C115.889 18.6053 115.458 18.6053 115.304 18.91L111.992 25.4643L110.568 28.2721C110.497 28.412 110.354 28.5 110.198 28.5H107.762C107.452 28.5 107.251 28.1691 107.393 27.8905L108.623 25.4643L115.304 12.2321C115.458 11.9273 115.889 11.9273 116.043 12.2321L122.723 25.4643Z" fill="#052E23"/>
</svg>
